<svg version="1.1" id="Layer_1" xmlns="http://www.w3.org/2000/svg" xmlns:xlink="http://www.w3.org/1999/xlink" x="0px" y="0px"
	 width="100%" viewBox="0 0 1484 1484" enable-background="new 0 0 1484 1484" xml:space="preserve">
<path fill="#000000" opacity="1.000000" stroke="none"
	d="
M677.000000,1485.000000
	C451.333374,1485.000000 226.166748,1485.000000 1.000091,1485.000000
	C1.000060,990.333435 1.000060,495.666931 1.000030,1.000290
	C495.666473,1.000193 990.332947,1.000193 1484.999512,1.000097
	C1484.999756,495.666351 1484.999756,990.332703 1484.999878,1484.999512
	C1215.833374,1485.000000 946.666687,1485.000000 677.000000,1485.000000
M739.106567,793.103638
	C739.106567,793.103638 739.120300,793.216614 739.637024,793.023499
	C739.839355,792.727112 740.041687,792.430725 740.114624,792.113281
	C740.114624,792.113281 740.107361,792.244202 740.717407,792.081604
	C741.003601,791.781494 741.289734,791.481384 742.304565,791.187134
	C743.517090,791.158936 744.729553,791.130676 745.863525,791.079346
	C745.863525,791.079346 745.840942,791.158020 746.294861,791.646301
	C747.651978,792.858093 749.089539,793.992004 750.351135,795.296204
	C754.307861,799.386597 759.351196,800.820923 764.767822,800.993896
	C770.290588,801.170227 774.121765,797.504456 774.837585,792.041992
	C775.535889,786.713928 771.962524,784.421692 768.208130,782.020264
	C759.164856,776.236267 759.520935,769.033264 769.509033,763.983826
	C769.662354,763.909302 769.815674,763.834839 770.742615,763.784424
	C772.544373,763.618469 774.346069,763.452576 776.811401,763.498840
	C779.200317,762.973633 781.788696,762.865173 783.936584,761.836548
	C788.425354,759.687012 791.792908,752.945923 790.714294,748.470520
	C789.431824,743.149231 784.898071,741.972412 780.359375,741.606567
	C776.601318,741.303711 772.777893,741.810303 768.213623,741.737732
	C764.625122,742.437073 761.917236,740.509827 761.403748,737.518494
	C760.928467,734.749451 761.619751,731.241272 763.076111,728.831360
	C764.525208,726.433533 767.588806,725.025696 769.902649,723.132568
	C772.852600,720.719177 774.565063,717.689575 772.984375,713.920837
	C770.813843,708.745605 766.416260,706.035278 761.152771,704.920105
	C756.588196,703.953003 753.817932,706.991821 751.070190,710.075562
	C748.900085,712.511047 746.352600,714.610229 743.313660,716.768188
	C742.431641,716.769470 741.549683,716.770691 740.241394,716.291443
	C739.830261,716.200073 739.419189,716.108704 738.493225,715.565613
	C734.438416,713.176941 732.804260,709.530457 733.375916,704.373474
	C733.826721,702.575195 734.277527,700.776855 734.861755,698.328308
	C734.786621,697.896179 734.711548,697.464050 734.727478,696.331726
	C732.936279,694.313477 731.193542,692.249390 729.340698,690.289429
	C727.352966,688.186768 724.810669,686.463623 723.316956,684.071289
	C720.821289,680.074036 715.238586,677.574707 709.968933,678.859009
	C705.365295,679.981079 702.629883,683.123413 703.174988,688.438110
	C703.657288,693.140869 705.157593,697.799805 706.681763,702.318420
	C708.240173,706.938477 708.440796,711.075073 704.849915,714.806824
	C704.849915,714.806824 704.885742,714.701782 704.161133,714.785522
	C703.255249,715.127319 702.349304,715.469055 701.202576,715.583801
	C701.202576,715.583801 700.885315,715.678345 700.298645,715.368408
	C697.217590,713.016663 693.749268,711.024231 691.150757,708.224670
	C687.687622,704.493591 683.904968,703.018250 679.132263,704.532043
	C674.340759,706.051758 669.361145,707.686157 668.139282,713.459778
	C666.982117,718.927673 670.124634,722.529602 674.103821,725.695190
	C676.546997,727.638916 678.764893,729.865662 681.084167,732.691833
	C681.189331,733.162964 681.294556,733.634094 681.110901,734.774902
	C679.711182,740.335815 675.988159,742.138855 670.456177,742.446167
	C664.955139,742.751831 659.518677,744.220764 653.348877,745.192688
	C649.815369,746.687866 646.800903,748.988159 647.138428,753.087585
	C647.492004,757.380981 651.059998,759.152405 655.209351,760.849243
	C659.767578,764.566711 665.071106,765.106567 670.639771,764.421814
	C675.428650,763.832947 679.077393,765.289795 680.903503,770.744812
	C680.934204,771.496887 680.964844,772.249023 680.587280,773.543579
	C677.585999,776.510254 674.886353,779.890808 671.514038,782.348389
	C666.205505,786.216980 664.904175,790.835205 669.194336,795.795227
	C671.969299,799.003418 675.601929,801.469788 679.096924,804.886841
	C681.318298,807.580139 683.968811,810.028625 685.673523,813.016724
	C689.446289,819.630066 694.142761,819.498962 700.609192,817.022095
	C706.353882,814.821655 712.753662,814.331116 719.049377,813.773376
	C721.514832,818.677734 725.989441,820.715027 731.252014,819.329102
	C736.065247,818.061584 738.531738,814.384521 738.054871,808.775024
	C737.890320,806.840515 737.182617,804.952271 736.782837,802.333740
	C736.686768,801.871521 736.590759,801.409363 736.766479,800.227051
	C737.321228,798.287476 737.875916,796.347900 738.439941,794.245361
	C738.439941,794.245361 738.377625,794.396240 738.840637,794.107178
	C738.967224,793.772339 739.093811,793.437500 739.106567,793.103638
M518.521667,695.496704
	C518.477661,695.317200 518.433716,695.137634 518.550659,694.202637
	C518.572388,691.178955 518.594116,688.155212 519.035889,684.414368
	C519.979919,677.601746 520.923950,670.789062 522.335876,663.397827
	C526.180603,648.556091 530.696167,634.030945 540.892578,622.005432
	C541.442322,621.357117 541.089233,618.984131 540.351501,618.348938
	C531.147705,610.425110 519.511780,607.544189 508.464630,617.313477
	C500.797546,624.093689 496.753448,633.242371 493.761353,643.633057
	C493.431274,645.031128 493.101196,646.429199 492.425446,648.301147
	C492.334625,648.873840 492.243835,649.446533 491.968750,650.486389
	C491.969879,650.653809 491.970978,650.821167 491.545471,651.625305
	C486.667572,671.900208 485.707123,692.502075 487.564331,713.141968
	C488.436768,722.837952 491.171204,732.366455 492.984497,742.784546
	C495.307983,755.594177 500.800079,767.181152 507.272614,778.270752
	C524.373535,807.570435 548.743408,828.243042 580.970581,839.374451
	C605.241943,847.757996 630.905396,847.312927 656.608459,851.579712
	C655.011902,849.807190 654.103638,848.329224 652.797791,847.426270
	C645.294434,842.238159 638.065063,836.493103 630.052307,832.236877
	C614.766724,824.117432 598.856079,817.180664 583.502563,809.181580
	C567.261292,800.720032 552.447632,790.041565 541.733948,774.979736
	C535.515259,766.237244 530.978088,756.298523 525.655396,746.156250
	C523.377075,734.751160 521.098755,723.346130 518.895264,711.018188
	C518.701721,706.015808 518.508179,701.013428 518.521667,695.496704
M748.011597,412.008087
	C748.011597,412.008087 747.851135,412.005463 747.531250,411.443909
	C726.680115,390.917908 708.469604,368.359619 694.601562,341.852203
	C693.864075,343.292023 693.425720,344.147797 692.551819,345.512329
	C688.352905,353.250275 684.153992,360.988190 679.458252,369.247162
	C670.284607,392.303101 664.384338,416.224701 662.254456,440.891083
	C660.602417,460.024231 664.430298,478.386536 674.007263,495.275238
	C679.816650,505.520111 688.700867,512.352173 699.487488,518.205627
	C696.024353,506.179749 692.595276,495.067474 689.635864,483.831482
	C683.254639,459.603638 680.958191,435.307892 689.401733,410.997498
	C691.742920,404.256866 693.967285,397.475647 696.722229,390.242157
	C697.781738,390.824890 699.210571,391.145050 699.841431,392.032471
	C704.307007,398.314301 708.608948,404.712463 713.032593,411.589569
	C713.315613,411.759216 713.598694,411.928833 713.904175,412.088593
	C713.904175,412.088593 713.893799,412.111969 713.902527,412.820984
	C716.819397,416.850006 719.662720,420.934845 722.667297,424.897369
	C731.105652,436.026123 740.239197,446.686829 747.950317,458.294861
	C761.446045,478.610657 764.916016,500.809631 756.560425,524.063416
	C752.351074,535.778137 747.179260,547.156128 742.200745,558.580994
	C740.058411,563.497375 737.302185,568.146240 734.824890,572.916626
	C750.571960,560.883606 764.356934,547.287537 774.323242,530.212585
	C781.319702,518.225830 785.747986,505.472473 786.055054,491.468689
	C786.753906,459.593384 771.479736,435.239746 749.413391,413.542725
	C748.945435,413.084686 748.477478,412.626648 748.011597,412.008087
M553.705688,508.722412
	C553.491394,508.530609 553.275024,508.341187 552.963074,507.400665
	C551.508484,504.107544 550.053894,500.814423 548.459595,497.205017
	C535.682556,506.492218 527.068237,518.323059 522.878418,533.229309
	C520.110962,543.075012 518.570374,553.023926 522.503601,563.651001
	C524.793762,566.545837 527.083862,569.440613 529.555420,572.564758
	C529.555420,564.585205 529.555420,557.738220 529.825989,550.134644
	C530.824524,539.091003 535.615601,529.623596 542.742249,520.694214
	C543.945007,521.761353 545.358337,522.667480 546.317139,523.921143
	C554.125549,534.130615 561.260620,544.663818 561.583252,558.546265
	C565.162537,553.610291 568.966003,548.830872 570.924622,543.387573
	C572.248291,539.708679 572.464661,534.184082 570.567810,531.078186
	C565.798889,523.269226 559.550598,516.363708 553.965759,508.992706
	C553.965759,508.992706 553.913147,509.104401 553.705688,508.722412
M883.528503,714.454468
	C887.240234,717.928467 888.557556,722.533081 887.880676,727.194641
	C885.708496,742.154602 883.386230,757.109802 880.464600,771.937317
	C878.798767,780.391907 875.853760,788.594543 873.484741,796.910583
	C895.281799,775.412109 901.347656,748.158569 902.879700,718.220337
	C903.428528,709.164612 903.093506,700.266357 898.456665,692.079224
	C894.239685,684.633362 885.921326,680.084229 879.158142,681.586914
	C870.720459,683.461609 865.352478,690.989990 866.238953,699.705444
	C867.192932,709.084412 872.585327,713.645752 883.528503,714.454468
M691.017517,1023.245544
	C691.017517,1023.245544 691.239014,1023.093018 691.239014,1023.093018
	C691.239014,1023.093018 691.029114,1023.016724 691.730896,1022.341187
	C691.730896,1015.091553 691.730896,1007.841919 691.730896,1000.480591
	C674.469055,1000.480591 657.720459,1000.480591 640.104553,1000.219360
	C639.521484,991.596375 638.938477,982.973328 638.318909,973.810669
	C649.442200,973.810669 659.184387,973.810669 669.862793,973.987366
	C678.780579,973.987366 687.698364,973.987366 696.930115,973.987366
	C696.930115,966.404297 696.930115,959.380554 696.930115,952.193909
	C677.776001,952.193909 658.899597,952.193909 639.094421,952.038879
	C631.161621,952.038879 623.228760,952.038879 615.113281,952.038879
	C615.113281,992.862976 615.113281,1032.881958 615.113281,1072.938477
	C623.086731,1072.938477 630.777649,1072.938477 638.832275,1072.938477
	C638.832275,1057.847168 638.781189,1043.214355 638.897949,1028.582764
	C638.912292,1026.784424 639.823853,1024.993042 640.842041,1023.418518
	C641.374756,1023.302917 641.907532,1023.187378 642.927795,1023.380493
	C643.472717,1023.276917 644.017578,1023.173279 645.375610,1023.397034
	C660.555481,1023.281250 675.735352,1023.165405 691.017517,1023.245544
M802.807007,1068.077148
	C811.711182,1064.473511 819.278625,1058.721802 825.448120,1051.651245
	C843.870239,1030.538086 844.896667,997.993408 828.682922,975.186035
	C809.143799,947.701050 773.159607,945.778198 753.209229,952.972778
	C718.551208,965.408081 702.192993,1002.859619 716.520569,1036.970215
	C728.835938,1066.290283 761.667419,1080.847168 794.517578,1071.457520
	C797.131226,1070.710449 799.547668,1069.273193 802.807007,1068.077148
M811.916626,663.063538
	C808.647278,665.884644 805.104858,668.453064 802.190857,671.602905
	C799.630615,674.370361 797.373474,677.588379 795.686218,680.959595
	C791.540833,689.242371 792.926270,698.150024 798.813721,704.074036
	C804.077209,709.370239 813.220520,710.838074 821.100159,706.580383
	C825.340881,704.289001 829.556763,700.942261 832.275391,697.024780
	C842.071777,682.908875 844.413574,666.817078 843.106934,649.065918
	C842.826965,639.082642 842.323975,629.099487 842.322510,619.116150
	C842.320679,606.157593 842.225220,593.164978 843.117676,580.252502
	C843.706909,571.727417 846.537781,563.515686 851.085938,555.007446
	C867.208923,575.163574 878.750061,596.041931 878.814514,621.966797
	C881.943298,617.076660 884.618469,612.296448 886.961060,607.358459
	C894.344482,591.795288 892.422852,577.350098 881.600159,563.964294
	C871.181702,551.078491 858.030151,541.526367 844.205261,532.728149
	C841.436218,530.965881 840.358215,532.676514 839.032776,534.480042
	C831.837219,544.270691 826.015625,554.989380 824.173035,566.908386
	C821.920776,581.476746 820.904785,596.297302 820.322449,611.047058
	C819.626526,628.673462 820.316284,646.393738 811.916626,663.063538
M622.342468,542.040466
	C622.487732,545.865356 622.718262,549.689209 622.764709,553.515320
	C623.127441,583.406738 612.474060,609.276184 595.086426,633.200012
	C585.934082,645.792786 577.597717,659.259583 570.897278,673.289062
	C560.202576,695.681824 558.306458,719.434143 565.805054,743.400208
	C571.822876,762.633789 593.745178,778.798645 611.368408,777.847595
	C609.341675,772.363892 606.734863,766.904175 605.318237,761.151306
	C602.213684,748.543884 599.560242,735.818604 597.001160,723.085449
	C593.410461,705.219482 596.763306,688.558350 606.942566,673.495178
	C612.716675,664.950684 618.719177,656.488159 625.362244,648.616089
	C650.623047,618.682312 654.788452,583.265686 652.932800,545.196350
	C652.804138,529.016602 650.437317,513.296875 642.780396,498.796661
	C638.428650,490.555481 632.335815,484.155975 622.772522,482.031891
	C617.613464,480.886017 612.594666,481.090973 609.051086,485.527374
	C605.661743,489.770721 606.419128,494.613892 608.451050,499.261108
	C610.319031,503.533325 612.813660,507.588379 614.206543,511.999847
	C617.253601,521.650574 619.776917,531.466614 622.342468,542.040466
M950.453369,1095.010864
	C953.499939,1096.717407 956.436218,1098.670654 959.610779,1100.091187
	C982.978210,1110.547241 1007.595825,1111.982788 1032.566650,1109.313232
	C1041.182617,1108.392090 1049.616211,1105.764160 1058.536133,1103.828247
	C1056.517456,1097.070435 1054.875244,1091.572754 1053.178223,1085.891968
	C1036.828857,1089.396484 1020.819519,1090.858276 1004.600342,1089.008179
	C984.842346,1086.754395 966.298279,1081.670532 951.923401,1066.740601
	C939.861633,1054.213135 932.592834,1038.668213 924.491699,1023.554688
	C925.828369,1022.607544 926.952698,1021.894409 927.985046,1021.066467
	C941.888855,1009.914612 945.427856,995.084961 942.070068,978.456238
	C938.845886,962.488953 927.646973,954.615295 912.167664,952.722473
	C904.438599,951.777344 896.553101,952.011475 888.735779,951.914185
	C879.121704,951.794495 869.505005,951.885559 859.630188,951.885559
	C859.630188,992.694519 859.630188,1032.879517 859.630188,1073.098389
	C867.592773,1073.098389 875.161682,1073.098389 883.153198,1073.098389
	C883.153198,1057.964600 883.153198,1043.189331 883.153198,1027.926636
	C886.681335,1027.926636 889.856140,1028.312866 892.899597,1027.844727
	C898.866699,1026.927124 902.370911,1029.964844 904.922668,1034.647095
	C908.026855,1040.343018 910.906677,1046.161133 913.902527,1051.916382
	C922.704285,1068.825806 933.644775,1083.937134 950.453369,1095.010864
M1019.265930,971.776428
	C1030.821167,972.602234 1039.755737,978.816406 1048.305908,986.467773
	C1054.011597,980.451965 1059.438599,974.729980 1064.905518,968.965942
	C1057.831543,961.697632 1049.960693,957.148743 1041.399902,953.680176
	C1013.734863,942.471130 983.731262,950.833252 966.494934,974.542969
	C949.775513,997.541626 951.083313,1030.636841 968.910278,1052.657471
	C993.311829,1082.799438 1043.782593,1078.923828 1068.314819,1051.589966
	C1069.492798,1050.277466 1070.116577,1048.025024 1070.146240,1046.196411
	C1070.337402,1034.372681 1070.293335,1022.545227 1070.322510,1010.718933
	C1070.330078,1007.631836 1070.323486,1004.544739 1070.323486,1001.603394
	C1054.789795,1001.603394 1040.041504,1001.603394 1025.275879,1001.603394
	C1025.275879,1009.064819 1025.275879,1016.119507 1025.275879,1023.678467
	C1032.571899,1023.678467 1039.514404,1023.678467 1046.865723,1023.678467
	C1046.865723,1028.493042 1047.042969,1032.817383 1046.767090,1037.112793
	C1046.673584,1038.568604 1045.758057,1040.296387 1044.670166,1041.313477
	C1034.017822,1051.271729 1014.311218,1054.330811 1001.077515,1048.231079
	C984.477051,1040.579590 975.566650,1021.939331 979.533325,1003.161255
	C983.604797,983.886902 998.426697,971.886047 1019.265930,971.776428
M1205.053467,963.529419
	C1205.053467,999.984436 1205.053467,1036.439453 1205.053467,1073.085327
	C1206.630981,1073.269165 1207.755737,1073.515015 1208.880371,1073.513794
	C1220.873413,1073.501343 1232.931885,1074.205078 1244.839478,1073.175903
	C1254.831665,1072.312622 1265.157227,1070.737671 1274.443481,1067.162109
	C1298.520508,1057.891113 1313.023804,1032.311646 1310.437012,1006.202515
	C1307.638428,977.954041 1291.211914,958.333435 1263.712036,954.038269
	C1247.404175,951.491150 1230.532715,952.541199 1213.913818,952.006287
	C1211.140259,951.917053 1208.361450,951.993774 1205.054443,951.993774
	C1205.054443,955.958618 1205.054443,959.249878 1205.053467,963.529419
M385.635986,951.972839
	C383.491547,951.972839 381.347076,951.972839 378.980347,951.972839
	C378.980347,992.636902 378.980347,1032.865967 378.980347,1072.964600
	C407.379364,1072.964600 435.409973,1072.964600 463.509216,1072.964600
	C463.509216,1065.512451 463.509216,1058.585205 463.509216,1051.014160
	C443.138763,1051.014160 423.067383,1051.014160 402.861511,1051.014160
	C402.861511,1041.619019 402.861511,1032.875000 402.861511,1023.470764
	C420.917023,1023.470764 438.621796,1023.470764 456.497559,1023.470764
	C456.497559,1015.405151 456.497559,1008.005981 456.497559,1000.016846
	C438.402496,1000.016846 420.672089,1000.016846 403.101257,1000.016846
	C403.101257,991.033875 403.101257,982.652527 403.101257,973.731628
	C423.181122,973.731628 442.758148,973.731628 462.570557,973.731628
	C462.570557,966.230530 462.570557,959.286377 462.570557,951.974243
	C437.171875,951.974243 411.885925,951.974243 385.635986,951.972839
M1158.493896,1023.615601
	C1163.578369,1023.615601 1168.662964,1023.615601 1173.807617,1023.615601
	C1173.807617,1015.506165 1173.807617,1008.227905 1173.807617,1000.246033
	C1156.239990,1000.246033 1138.876587,1000.246033 1121.450928,1000.246033
	C1121.450928,991.145203 1121.450928,982.753296 1121.450928,973.859619
	C1140.524902,973.859619 1159.260620,973.859619 1178.115479,973.859619
	C1178.115479,966.291199 1178.115479,959.233582 1178.115479,952.418213
	C1151.046875,952.418213 1124.325684,952.418213 1097.583374,952.418213
	C1097.583374,992.949280 1097.583374,1032.980835 1097.583374,1073.192871
	C1125.183350,1073.192871 1152.426758,1073.192871 1179.843384,1073.192871
	C1179.843384,1065.757690 1179.843384,1058.662598 1179.843384,1050.958862
	C1160.265625,1050.958862 1140.898193,1050.958862 1121.359009,1050.958862
	C1121.359009,1041.613770 1121.359009,1032.879028 1121.359009,1023.614807
	C1133.572510,1023.614807 1145.534302,1023.614807 1158.493896,1023.615601
M163.543121,1012.967346
	C172.072403,1016.601868 180.544571,1020.378906 189.148621,1023.826965
	C196.381149,1026.725342 204.159439,1028.502075 210.980148,1032.123657
	C218.491730,1036.112061 217.581390,1045.401367 209.828766,1049.039307
	C207.470459,1050.145874 204.772644,1050.779663 202.168091,1051.068237
	C189.968842,1052.419800 178.287476,1050.171021 167.023514,1045.498047
	C163.211884,1043.916870 159.446259,1042.224731 155.300858,1040.427734
	C151.263611,1046.907349 147.368790,1053.158447 142.931992,1060.279297
	C150.438660,1063.556519 156.910461,1067.085449 163.809555,1069.256470
	C181.485535,1074.818726 199.544754,1076.374512 217.306625,1070.009644
	C231.588028,1064.891846 239.852432,1054.258911 240.871780,1038.899292
	C241.875534,1023.774231 233.110153,1014.572815 220.439301,1008.792725
	C212.610733,1005.221558 204.177658,1002.981018 196.032547,1000.096313
	C190.710480,998.211365 185.164001,996.740417 180.173203,994.192444
	C173.014999,990.538025 172.486816,982.312256 178.960587,977.540710
	C181.395737,975.745972 184.592117,974.614929 187.605133,974.042114
	C196.987137,972.258179 206.180542,973.874451 215.209442,976.527527
	C218.981949,977.636047 222.681656,978.992249 226.663177,980.318665
	C230.232666,973.331360 233.598190,966.743286 237.429031,959.244324
	C230.048920,956.809021 223.569809,954.195068 216.853409,952.550049
	C201.017929,948.671692 185.240906,947.884766 169.960800,955.213562
	C148.158844,965.670471 142.682037,998.178589 163.543121,1012.967346
M287.307831,1051.499146
	C287.307831,1046.069580 287.307831,1040.640015 287.307831,1034.789062
	C295.658722,1034.789062 303.303162,1035.100342 310.913116,1034.720703
	C324.408722,1034.047363 337.402100,1031.274170 345.809723,1019.452820
	C355.971649,1005.164978 355.936859,989.322205 349.710175,973.685425
	C344.041809,959.450562 331.836426,953.074158 317.305267,952.432373
	C299.687042,951.654358 282.005432,952.309509 264.351288,952.369690
	C264.075012,952.370605 263.799866,952.691956 263.491028,952.884460
	C263.491028,992.903931 263.491028,1032.934326 263.491028,1073.156250
	C271.539307,1073.156250 279.128235,1073.156250 287.306946,1073.156250
	C287.306946,1066.082520 287.306946,1059.290771 287.307831,1051.499146
M544.592712,949.336548
	C542.268738,949.516113 539.931152,949.590820 537.622864,949.891296
	C513.711609,953.003906 496.814850,965.654907 488.119812,988.080261
	C479.322876,1010.768494 482.197998,1032.644287 497.465576,1051.619019
	C515.090942,1073.523926 545.567871,1080.094727 571.364258,1068.846069
	C580.244812,1064.973633 588.120544,1059.617188 594.921082,1051.941650
	C588.345947,1046.167725 582.138611,1040.716675 575.914551,1035.251099
	C557.995667,1057.570923 533.322388,1053.123535 518.647461,1039.658325
	C503.859924,1026.089844 504.451691,1002.891602 515.164429,988.848267
	C521.520264,980.516541 530.142090,974.752625 540.995850,973.130188
	C555.070435,971.026367 565.796326,977.183594 575.178955,987.427979
	C581.082886,981.259705 586.578064,975.518616 592.014038,969.839294
	C584.152710,957.751892 565.740356,949.719971 544.592712,949.336548
M842.225037,801.757996
	C849.994629,789.753235 855.650757,776.904907 857.755432,762.654663
	C858.702087,756.245239 855.076477,751.304749 848.612854,750.083130
	C841.943176,748.822632 836.574768,752.347229 835.033203,758.645935
	C833.653320,764.284241 832.285400,769.972961 830.266174,775.399048
	C822.702026,795.725403 809.699097,812.529236 795.225464,828.307922
	C787.277588,836.972351 779.194580,845.512756 770.664185,854.653809
	C800.319092,844.416504 824.264648,827.725037 842.225037,801.757996
M755.354248,639.393921
	C765.183594,640.781067 772.876221,636.844849 775.653992,629.006775
	C779.081177,619.336243 774.380249,609.186707 764.944763,605.885193
	C755.877991,602.712708 746.146912,607.537720 742.894409,616.818542
	C739.535461,626.402954 744.243408,635.442383 755.354248,639.393921
M698.395996,651.344238
	C696.254883,644.610718 687.802307,643.516174 683.910522,647.996765
	C681.111694,651.218994 680.441040,654.814026 682.670532,658.549561
	C684.925842,662.328430 688.492004,663.518005 692.555969,662.157776
	C697.258606,660.583740 699.342834,657.102539 698.395996,651.344238
z"/>
<path fill="#F5B884" opacity="1.000000" stroke="none"
	d="
M950.153687,1094.810547
	C933.644775,1083.937134 922.704285,1068.825806 913.902527,1051.916382
	C910.906677,1046.161133 908.026855,1040.343018 904.922668,1034.647095
	C902.370911,1029.964844 898.866699,1026.927124 892.899597,1027.844727
	C889.856140,1028.312866 886.681335,1027.926636 883.153198,1027.926636
	C883.153198,1043.189331 883.153198,1057.964600 883.153198,1073.098389
	C875.161682,1073.098389 867.592773,1073.098389 859.630188,1073.098389
	C859.630188,1032.879517 859.630188,992.694519 859.630188,951.885559
	C869.505005,951.885559 879.121704,951.794495 888.735779,951.914185
	C896.553101,952.011475 904.438599,951.777344 912.167664,952.722473
	C927.646973,954.615295 938.845886,962.488953 942.070068,978.456238
	C945.427856,995.084961 941.888855,1009.914612 927.985046,1021.066467
	C926.952698,1021.894409 925.828369,1022.607544 924.491699,1023.554688
	C932.592834,1038.668213 939.861633,1054.213135 951.923401,1066.740601
	C966.298279,1081.670532 984.842346,1086.754395 1004.600342,1089.008179
	C1020.819519,1090.858276 1036.828857,1089.396484 1053.178223,1085.891968
	C1054.875244,1091.572754 1056.517456,1097.070435 1058.536133,1103.828247
	C1049.616211,1105.764160 1041.182617,1108.392090 1032.566650,1109.313232
	C1007.595825,1111.982788 982.978210,1110.547241 959.610779,1100.091187
	C956.436218,1098.670654 953.499939,1096.717407 950.153687,1094.810547
M883.183472,1000.354492
	C883.183472,1002.445679 883.183472,1004.536926 883.183472,1006.782532
	C890.388184,1006.782532 896.878296,1007.172546 903.289001,1006.627380
	C906.785156,1006.330078 910.477966,1004.994568 913.498352,1003.164124
	C919.471680,999.544373 920.636353,993.454285 919.900330,987.006042
	C919.266663,981.454590 916.480225,976.593933 910.861450,975.755127
	C901.822021,974.405701 892.597046,974.300049 883.208740,973.652222
	C883.208740,983.117188 883.208740,991.251099 883.183472,1000.354492
z"/>
<path fill="#D36B16" opacity="1.000000" stroke="none"
	d="
M652.755005,546.121460
	C654.788452,583.265686 650.623047,618.682312 625.362244,648.616089
	C618.719177,656.488159 612.716675,664.950684 606.942566,673.495178
	C596.763306,688.558350 593.410461,705.219482 597.001160,723.085449
	C599.560242,735.818604 602.213684,748.543884 605.318237,761.151306
	C606.734863,766.904175 609.341675,772.363892 611.368408,777.847595
	C593.745178,778.798645 571.822876,762.633789 565.805054,743.400208
	C558.306458,719.434143 560.202576,695.681824 570.897278,673.289062
	C577.597717,659.259583 585.934082,645.792786 595.086426,633.200012
	C612.474060,609.276184 623.127441,583.406738 622.764709,553.515320
	C622.718262,549.689209 622.487732,545.865356 622.780457,541.589111
	C631.978577,536.372498 640.221558,538.022095 648.182312,543.152771
	C649.709839,544.137207 651.230896,545.131653 652.755005,546.121460
z"/>
<path fill="#F6BB89" opacity="1.000000" stroke="none"
	d="
M1018.810791,971.752197
	C998.426697,971.886047 983.604797,983.886902 979.533325,1003.161255
	C975.566650,1021.939331 984.477051,1040.579590 1001.077515,1048.231079
	C1014.311218,1054.330811 1034.017822,1051.271729 1044.670166,1041.313477
	C1045.758057,1040.296387 1046.673584,1038.568604 1046.767090,1037.112793
	C1047.042969,1032.817383 1046.865723,1028.493042 1046.865723,1023.678467
	C1039.514404,1023.678467 1032.571899,1023.678467 1025.275879,1023.678467
	C1025.275879,1016.119507 1025.275879,1009.064819 1025.275879,1001.603394
	C1040.041504,1001.603394 1054.789795,1001.603394 1070.323486,1001.603394
	C1070.323486,1004.544739 1070.330078,1007.631836 1070.322510,1010.718933
	C1070.293335,1022.545227 1070.337402,1034.372681 1070.146240,1046.196411
	C1070.116577,1048.025024 1069.492798,1050.277466 1068.314819,1051.589966
	C1043.782593,1078.923828 993.311829,1082.799438 968.910278,1052.657471
	C951.083313,1030.636841 949.775513,997.541626 966.494934,974.542969
	C983.731262,950.833252 1013.734863,942.471130 1041.399902,953.680176
	C1049.960693,957.148743 1057.831543,961.697632 1064.905518,968.965942
	C1059.438599,974.729980 1054.011597,980.451965 1048.305908,986.467773
	C1039.755737,978.816406 1030.821167,972.602234 1018.810791,971.752197
z"/>
<path fill="#F6C091" opacity="1.000000" stroke="none"
	d="
M1205.053955,963.035278
	C1205.054443,959.249878 1205.054443,955.958618 1205.054443,951.993774
	C1208.361450,951.993774 1211.140259,951.917053 1213.913818,952.006287
	C1230.532715,952.541199 1247.404175,951.491150 1263.712036,954.038269
	C1291.211914,958.333435 1307.638428,977.954041 1310.437012,1006.202515
	C1313.023804,1032.311646 1298.520508,1057.891113 1274.443481,1067.162109
	C1265.157227,1070.737671 1254.831665,1072.312622 1244.839478,1073.175903
	C1232.931885,1074.205078 1220.873413,1073.501343 1208.880371,1073.513794
	C1207.755737,1073.515015 1206.630981,1073.269165 1205.053467,1073.085327
	C1205.053467,1036.439453 1205.053467,999.984436 1205.053955,963.035278
M1228.930054,1001.500000
	C1228.930054,1017.908142 1228.930054,1034.316284 1228.930054,1051.455933
	C1237.867554,1050.970337 1246.164551,1050.809937 1254.398682,1050.005859
	C1267.636475,1048.712891 1276.822754,1041.437378 1282.504761,1029.607910
	C1292.543335,1008.707458 1283.569458,984.133118 1263.339844,977.386902
	C1252.285645,973.700623 1240.826294,973.952637 1228.930054,974.271118
	C1228.930054,983.262146 1228.930054,991.881104 1228.930054,1001.500000
z"/>
<path fill="#EA7B16" opacity="1.000000" stroke="none"
	d="
M386.117981,951.973511
	C411.885925,951.974243 437.171875,951.974243 462.570557,951.974243
	C462.570557,959.286377 462.570557,966.230530 462.570557,973.731628
	C442.758148,973.731628 423.181122,973.731628 403.101257,973.731628
	C403.101257,982.652527 403.101257,991.033875 403.101257,1000.016846
	C420.672089,1000.016846 438.402496,1000.016846 456.497559,1000.016846
	C456.497559,1008.005981 456.497559,1015.405151 456.497559,1023.470764
	C438.621796,1023.470764 420.917023,1023.470764 402.861511,1023.470764
	C402.861511,1032.875000 402.861511,1041.619019 402.861511,1051.014160
	C423.067383,1051.014160 443.138763,1051.014160 463.509216,1051.014160
	C463.509216,1058.585205 463.509216,1065.512451 463.509216,1072.964600
	C435.409973,1072.964600 407.379364,1072.964600 378.980347,1072.964600
	C378.980347,1032.865967 378.980347,992.636902 378.980347,951.972839
	C381.347076,951.972839 383.491547,951.972839 386.117981,951.973511
z"/>
<path fill="#F6C091" opacity="1.000000" stroke="none"
	d="
M1157.994995,1023.615234
	C1145.534302,1023.614807 1133.572510,1023.614807 1121.359009,1023.614807
	C1121.359009,1032.879028 1121.359009,1041.613770 1121.359009,1050.958862
	C1140.898193,1050.958862 1160.265625,1050.958862 1179.843384,1050.958862
	C1179.843384,1058.662598 1179.843384,1065.757690 1179.843384,1073.192871
	C1152.426758,1073.192871 1125.183350,1073.192871 1097.583374,1073.192871
	C1097.583374,1032.980835 1097.583374,992.949280 1097.583374,952.418213
	C1124.325684,952.418213 1151.046875,952.418213 1178.115479,952.418213
	C1178.115479,959.233582 1178.115479,966.291199 1178.115479,973.859619
	C1159.260620,973.859619 1140.524902,973.859619 1121.450928,973.859619
	C1121.450928,982.753296 1121.450928,991.145203 1121.450928,1000.246033
	C1138.876587,1000.246033 1156.239990,1000.246033 1173.807617,1000.246033
	C1173.807617,1008.227905 1173.807617,1015.506165 1173.807617,1023.615601
	C1168.662964,1023.615601 1163.578369,1023.615601 1157.994995,1023.615234
z"/>
<path fill="#E4730A" opacity="1.000000" stroke="none"
	d="
M163.267700,1012.739807
	C142.682037,998.178589 148.158844,965.670471 169.960800,955.213562
	C185.240906,947.884766 201.017929,948.671692 216.853409,952.550049
	C223.569809,954.195068 230.048920,956.809021 237.429031,959.244324
	C233.598190,966.743286 230.232666,973.331360 226.663177,980.318665
	C222.681656,978.992249 218.981949,977.636047 215.209442,976.527527
	C206.180542,973.874451 196.987137,972.258179 187.605133,974.042114
	C184.592117,974.614929 181.395737,975.745972 178.960587,977.540710
	C172.486816,982.312256 173.014999,990.538025 180.173203,994.192444
	C185.164001,996.740417 190.710480,998.211365 196.032547,1000.096313
	C204.177658,1002.981018 212.610733,1005.221558 220.439301,1008.792725
	C233.110153,1014.572815 241.875534,1023.774231 240.871780,1038.899292
	C239.852432,1054.258911 231.588028,1064.891846 217.306625,1070.009644
	C199.544754,1076.374512 181.485535,1074.818726 163.809555,1069.256470
	C156.910461,1067.085449 150.438660,1063.556519 142.931992,1060.279297
	C147.368790,1053.158447 151.263611,1046.907349 155.300858,1040.427734
	C159.446259,1042.224731 163.211884,1043.916870 167.023514,1045.498047
	C178.287476,1050.171021 189.968842,1052.419800 202.168091,1051.068237
	C204.772644,1050.779663 207.470459,1050.145874 209.828766,1049.039307
	C217.581390,1045.401367 218.491730,1036.112061 210.980148,1032.123657
	C204.159439,1028.502075 196.381149,1026.725342 189.148621,1023.826965
	C180.544571,1020.378906 172.072403,1016.601868 163.267700,1012.739807
z"/>
<path fill="#E8770F" opacity="1.000000" stroke="none"
	d="
M287.307373,1051.999023
	C287.306946,1059.290771 287.306946,1066.082520 287.306946,1073.156250
	C279.128235,1073.156250 271.539307,1073.156250 263.491028,1073.156250
	C263.491028,1032.934326 263.491028,992.903931 263.491028,952.884460
	C263.799866,952.691956 264.075012,952.370605 264.351288,952.369690
	C282.005432,952.309509 299.687042,951.654358 317.305267,952.432373
	C331.836426,953.074158 344.041809,959.450562 349.710175,973.685425
	C355.936859,989.322205 355.971649,1005.164978 345.809723,1019.452820
	C337.402100,1031.274170 324.408722,1034.047363 310.913116,1034.720703
	C303.303162,1035.100342 295.658722,1034.789062 287.307831,1034.789062
	C287.307831,1040.640015 287.307831,1046.069580 287.307373,1051.999023
M314.869598,1011.845093
	C325.765228,1008.881348 330.576477,1002.688477 330.098938,992.242432
	C329.687317,983.238281 324.133514,976.472473 314.656158,975.557434
	C305.811798,974.703552 296.820190,975.374939 287.669556,975.374939
	C287.669556,987.557678 287.669556,999.710388 287.669556,1011.961914
	C296.743835,1011.961914 305.366089,1011.961914 314.869598,1011.845093
z"/>
<path fill="#EB842B" opacity="1.000000" stroke="none"
	d="
M545.062500,949.335449
	C565.740356,949.719971 584.152710,957.751892 592.014038,969.839294
	C586.578064,975.518616 581.082886,981.259705 575.178955,987.427979
	C565.796326,977.183594 555.070435,971.026367 540.995850,973.130188
	C530.142090,974.752625 521.520264,980.516541 515.164429,988.848267
	C504.451691,1002.891602 503.859924,1026.089844 518.647461,1039.658325
	C533.322388,1053.123535 557.995667,1057.570923 575.914551,1035.251099
	C582.138611,1040.716675 588.345947,1046.167725 594.921082,1051.941650
	C588.120544,1059.617188 580.244812,1064.973633 571.364258,1068.846069
	C545.567871,1080.094727 515.090942,1073.523926 497.465576,1051.619019
	C482.197998,1032.644287 479.322876,1010.768494 488.119812,988.080261
	C496.814850,965.654907 513.711609,953.003906 537.622864,949.891296
	C539.931152,949.590820 542.268738,949.516113 545.062500,949.335449
z"/>
<path fill="#6F3406" opacity="1.000000" stroke="none"
	d="
M525.684265,746.898132
	C530.978088,756.298523 535.515259,766.237244 541.733948,774.979736
	C552.447632,790.041565 567.261292,800.720032 583.502563,809.181580
	C598.856079,817.180664 614.766724,824.117432 630.052307,832.236877
	C638.065063,836.493103 645.294434,842.238159 652.797791,847.426270
	C654.103638,848.329224 655.011902,849.807190 656.608459,851.579712
	C630.905396,847.312927 605.241943,847.757996 580.970581,839.374451
	C548.743408,828.243042 524.373535,807.570435 507.272614,778.270752
	C500.800079,767.181152 495.307983,755.594177 493.392456,742.393494
	C503.852844,747.382324 514.477051,749.038635 525.684265,746.898132
z"/>
<path fill="#B25810" opacity="1.000000" stroke="none"
	d="
M812.523499,662.908936
	C820.316284,646.393738 819.626526,628.673462 820.322449,611.047058
	C820.904785,596.297302 821.920776,581.476746 824.173035,566.908386
	C826.015625,554.989380 831.837219,544.270691 839.032776,534.480042
	C840.358215,532.676514 841.436218,530.965881 844.205261,532.728149
	C858.030151,541.526367 871.181702,551.078491 881.600159,563.964294
	C892.422852,577.350098 894.344482,591.795288 886.961060,607.358459
	C884.618469,612.296448 881.943298,617.076660 878.814514,621.966797
	C878.750061,596.041931 867.208923,575.163574 851.085938,555.007446
	C846.537781,563.515686 843.706909,571.727417 843.117676,580.252502
	C842.225220,593.164978 842.320679,606.157593 842.322510,619.116150
	C842.323975,629.099487 842.826965,639.082642 842.820557,649.819153
	C841.538086,654.235840 840.894287,658.041748 839.480347,661.536194
	C835.095947,672.371765 822.492004,674.137146 815.061584,665.142273
	C814.352966,664.284363 813.375916,663.648132 812.523499,662.908936
z"/>
<path fill="#F6AC6C" opacity="1.000000" stroke="none"
	d="
M802.055725,1068.156738
	C799.547668,1069.273193 797.131226,1070.710449 794.517578,1071.457520
	C761.667419,1080.847168 728.835938,1066.290283 716.520569,1036.970215
	C702.192993,1002.859619 718.551208,965.408081 754.004883,952.975891
	C758.906677,952.710205 761.873535,954.135986 764.571655,957.569519
	C767.546753,961.355530 771.617676,964.270996 775.119080,967.660889
	C775.856445,968.374756 776.193848,969.501770 776.715576,970.438477
	C775.777527,970.949646 774.889038,971.744080 773.891968,971.918640
	C770.965393,972.431091 767.880249,972.316345 765.075378,973.166809
	C762.268372,974.017883 759.724548,975.737122 757.058350,977.045776
	C757.051331,977.015625 757.110962,977.031738 756.919922,977.119263
	C756.478455,977.335510 756.248718,977.494263 755.763306,977.905029
	C754.631836,978.640991 753.761658,979.131653 752.923889,979.672424
	C738.985291,988.670471 732.618225,1003.843811 736.043030,1020.839417
	C739.080933,1035.915039 749.255432,1046.212769 765.830383,1049.794678
	C775.085022,1051.794678 784.015076,1050.268433 793.124268,1047.965454
	C796.667419,1048.906372 800.026733,1049.451782 803.265320,1050.406494
	C804.232544,1050.691650 805.656067,1052.271484 805.518555,1053.004395
	C804.563782,1058.092651 803.252563,1063.113892 802.055725,1068.156738
z"/>
<path fill="#994B0D" opacity="1.000000" stroke="none"
	d="
M749.566040,414.015717
	C771.479736,435.239746 786.753906,459.593384 786.055054,491.468689
	C785.747986,505.472473 781.319702,518.225830 774.323242,530.212585
	C764.356934,547.287537 750.571960,560.883606 734.824890,572.916626
	C737.302185,568.146240 740.058411,563.497375 742.200745,558.580994
	C747.179260,547.156128 752.351074,535.778137 756.560425,524.063416
	C764.916016,500.809631 761.446045,478.610657 747.950317,458.294861
	C740.239197,446.686829 731.105652,436.026123 722.667297,424.897369
	C719.662720,420.934845 716.819397,416.850006 714.228027,412.553040
	C716.713440,413.816528 718.704224,415.710114 721.064575,416.812561
	C728.620178,420.341675 734.615051,416.472473 735.349243,408.103210
	C739.763428,409.430115 743.807312,410.717773 747.851135,412.005463
	C747.851135,412.005463 748.011597,412.008087 748.098389,412.325165
	C748.645508,413.100067 749.105774,413.557892 749.566040,414.015717
z"/>
<path fill="#F6B177" opacity="1.000000" stroke="none"
	d="
M757.065369,977.075806
	C759.724548,975.737122 762.268372,974.017883 765.075378,973.166809
	C767.880249,972.316345 770.965393,972.431091 773.891968,971.918640
	C774.889038,971.744080 775.777527,970.949646 776.715576,970.438477
	C776.193848,969.501770 775.856445,968.374756 775.119080,967.660889
	C771.617676,964.270996 767.546753,961.355530 764.571655,957.569519
	C761.873535,954.135986 758.906677,952.710205 754.381348,952.986023
	C773.159607,945.778198 809.143799,947.701050 828.682922,975.186035
	C844.896667,997.993408 843.870239,1030.538086 825.448120,1051.651245
	C819.278625,1058.721802 811.711182,1064.473511 802.431396,1068.116943
	C803.252563,1063.113892 804.563782,1058.092651 805.518555,1053.004395
	C805.656067,1052.271484 804.232544,1050.691650 803.265320,1050.406494
	C800.026733,1049.451782 796.667419,1048.906372 793.296631,1047.670532
	C795.286438,1045.801270 797.374268,1044.523315 799.374878,1043.121094
	C812.545166,1033.890137 817.897278,1021.128845 815.038757,1005.480957
	C812.109009,989.442627 802.277893,979.132935 786.434265,974.988708
	C776.479675,972.384766 766.660522,973.631287 757.065369,977.075806
z"/>
<path fill="#F08F3C" opacity="1.000000" stroke="none"
	d="
M640.319641,1023.198486
	C639.823853,1024.993042 638.912292,1026.784424 638.897949,1028.582764
	C638.781189,1043.214355 638.832275,1057.847168 638.832275,1072.938477
	C630.777649,1072.938477 623.086731,1072.938477 615.113281,1072.938477
	C615.113281,1032.881958 615.113281,992.862976 615.113281,952.038879
	C623.228760,952.038879 631.161621,952.038879 639.906189,952.323364
	C646.619324,952.832825 652.735840,952.531189 655.967224,959.091125
	C656.144409,959.450806 656.864319,959.502808 657.230469,959.816162
	C659.790039,962.006836 662.635315,963.966003 664.776917,966.513916
	C666.930664,969.076477 665.532776,971.647461 662.058594,971.925110
	C659.278076,972.147400 656.465637,971.970032 653.667358,971.970032
	C653.680908,972.182495 653.694458,972.394958 653.708008,972.607422
	C658.780884,973.008484 663.853699,973.409546 668.926575,973.810669
	C659.184387,973.810669 649.442200,973.810669 638.318909,973.810669
	C638.938477,982.973328 639.521484,991.596375 640.547302,1000.752441
	C640.105713,1008.631653 644.958618,1012.096619 650.325562,1015.329529
	C651.545593,1016.064453 652.374146,1017.449280 653.382874,1018.534912
	C652.080688,1018.912659 650.789795,1019.336914 649.473999,1019.659058
	C646.328979,1020.429199 643.171814,1021.150024 640.033630,1021.946106
	C640.023682,1021.948669 640.219788,1022.763184 640.319641,1023.198486
z"/>
<path fill="#D36B16" opacity="1.000000" stroke="none"
	d="
M700.885315,715.678345
	C700.885315,715.678345 701.202576,715.583801 701.717407,715.745239
	C703.116699,715.505066 704.001221,715.103455 704.885742,714.701782
	C704.885742,714.701782 704.849915,714.806824 705.191345,714.857544
	C711.521667,715.859924 716.886414,714.789001 721.272156,710.243347
	C723.448975,707.987244 725.562683,705.575012 728.101807,703.801819
	C729.483459,702.837036 732.418396,700.223022 732.975098,704.946045
	C732.804260,709.530457 734.438416,713.176941 738.984497,715.997314
	C739.873047,716.543396 740.270325,716.657654 740.667664,716.771973
	C741.549683,716.770691 742.431641,716.769470 743.635986,717.223511
	C742.698303,721.688599 743.432556,725.244934 745.254883,729.118042
	C749.590149,738.331909 755.963135,746.759705 756.710266,757.466797
	C756.856873,759.566650 757.932983,761.585632 758.279602,763.691406
	C758.827637,767.021423 759.595154,770.423218 759.385437,773.738647
	C759.188354,776.853943 757.912354,779.917236 756.979858,782.963196
	C756.484436,784.581665 756.142761,786.864929 754.976196,787.537048
	C752.168030,789.155212 748.914734,790.000854 745.840942,791.158020
	C745.840942,791.158020 745.863525,791.079346 745.984497,790.715454
	C749.407593,783.912231 749.594177,777.080200 748.497559,770.141357
	C747.984375,766.894165 746.583862,765.952698 742.981689,767.286987
	C739.496460,768.578064 735.464783,768.393738 731.822754,768.542969
	C737.095947,763.015137 739.013245,756.927185 736.231628,749.997070
	C733.647339,743.558350 728.458618,740.132446 721.663574,739.494568
	C718.922119,739.237244 716.092896,739.915771 712.988037,739.995850
	C705.785767,733.979248 704.109497,734.122620 698.230652,741.366394
	C692.562378,748.350647 692.410950,756.619812 693.294189,764.954346
	C693.378601,765.750854 696.659668,767.225037 697.460266,766.739929
	C699.922607,765.248108 701.900757,762.957214 704.128662,761.331787
	C706.809387,764.747559 709.428467,767.808350 711.929810,771.224976
	C710.178406,771.975220 708.519165,772.286255 706.916321,772.780457
	C702.948547,774.004150 698.322021,774.500427 695.385803,776.978333
	C694.184875,777.991882 696.599976,783.381531 697.508179,786.743103
	C697.755310,787.657715 698.504700,788.436646 698.804932,789.511353
	C696.089172,791.269897 693.592163,792.794800 690.934082,793.992310
	C687.513916,786.776978 684.254700,779.889038 680.995483,773.001099
	C680.964844,772.249023 680.934204,771.496887 681.239380,770.219238
	C682.159119,769.402222 682.743042,769.110840 683.697876,768.837219
	C689.717407,768.019714 690.333923,767.087769 690.774780,758.718079
	C691.186890,750.893127 688.098938,747.479187 680.106934,746.969055
	C680.110718,744.786865 680.422546,742.868042 680.660095,740.940125
	C680.940247,738.665955 681.156006,736.383850 681.399780,734.105225
	C681.294556,733.634094 681.189331,733.162964 681.391357,732.176392
	C682.333496,731.154053 683.426086,730.729065 683.533752,730.127808
	C684.859985,722.718811 689.690430,720.281311 696.611206,720.566956
	C697.397705,720.599426 698.193726,720.147888 698.999939,720.001160
	C701.798828,719.491821 701.974121,717.867737 700.885315,715.678345
z"/>
<path fill="#994B0D" opacity="1.000000" stroke="none"
	d="
M525.669800,746.527222
	C514.477051,749.038635 503.852844,747.382324 493.431091,741.986633
	C491.171204,732.366455 488.436768,722.837952 487.564331,713.141968
	C485.707123,692.502075 486.667572,671.900208 491.890717,651.224121
	C492.446991,650.537842 492.419342,650.269958 492.153015,650.019226
	C492.243835,649.446533 492.334625,648.873840 492.869446,648.294250
	C494.543579,650.520386 495.773712,652.753357 496.868958,655.227295
	C497.836273,656.981201 498.938446,658.494141 500.018250,660.005188
	C499.995880,660.003296 499.998138,659.958374 500.004028,660.307251
	C500.680878,661.768738 501.351868,662.881226 502.009552,663.995850
	C501.996277,663.997986 502.014740,663.977173 502.061768,664.327087
	C503.422394,666.972412 504.484894,669.462952 506.091858,671.530334
	C514.295593,682.084839 519.347839,693.505981 517.125305,707.304260
	C516.896973,708.722107 518.218201,710.389465 518.820374,711.941040
	C521.098755,723.346130 523.377075,734.751160 525.669800,746.527222
z"/>
<path fill="#ED9349" opacity="1.000000" stroke="none"
	d="
M842.023865,802.056763
	C824.264648,827.725037 800.319092,844.416504 770.664185,854.653809
	C779.194580,845.512756 787.277588,836.972351 795.225464,828.307922
	C809.699097,812.529236 822.702026,795.725403 830.266174,775.399048
	C832.285400,769.972961 833.653320,764.284241 835.033203,758.645935
	C836.574768,752.347229 841.943176,748.822632 848.612854,750.083130
	C855.076477,751.304749 858.702087,756.245239 857.755432,762.654663
	C855.650757,776.904907 849.994629,789.753235 842.023865,802.056763
z"/>
<path fill="#F5B884" opacity="1.000000" stroke="none"
	d="
M734.978943,408.064026
	C734.615051,416.472473 728.620178,420.341675 721.064575,416.812561
	C718.704224,415.710114 716.713440,413.816528 714.223633,412.198517
	C713.893799,412.111969 713.904175,412.088593 713.857300,411.837677
	C713.527954,411.415680 713.245483,411.244598 712.963074,411.073486
	C708.608948,404.712463 704.307007,398.314301 699.841431,392.032471
	C699.210571,391.145050 697.781738,390.824890 696.155884,390.531189
	C694.148499,392.344330 692.044373,393.622223 691.372498,395.431854
	C686.520081,408.502197 681.685547,421.593597 677.458313,434.873444
	C676.078491,439.208282 673.440491,439.295258 670.296509,438.956726
	C666.734375,438.573181 667.056641,435.704590 667.480530,433.201477
	C669.031799,424.042175 670.544434,414.872742 672.327515,405.757172
	C674.746765,393.389374 677.401489,381.067627 679.955078,368.726135
	C684.153992,360.988190 688.352905,353.250275 693.104187,345.368103
	C694.537048,346.596558 695.508179,347.920074 696.283691,349.349762
	C702.850403,361.455719 708.740845,373.990723 716.140808,385.561340
	C721.368225,393.735016 728.627014,400.609528 734.978943,408.064026
z"/>
<path fill="#EB842B" opacity="1.000000" stroke="none"
	d="
M679.706665,368.986633
	C677.401489,381.067627 674.746765,393.389374 672.327515,405.757172
	C670.544434,414.872742 669.031799,424.042175 667.480530,433.201477
	C667.056641,435.704590 666.734375,438.573181 670.296509,438.956726
	C673.440491,439.295258 676.078491,439.208282 677.458313,434.873444
	C681.685547,421.593597 686.520081,408.502197 691.372498,395.431854
	C692.044373,393.622223 694.148499,392.344330 695.917419,390.766663
	C693.967285,397.475647 691.742920,404.256866 689.401733,410.997498
	C680.958191,435.307892 683.254639,459.603638 689.635864,483.831482
	C692.595276,495.067474 696.024353,506.179749 699.487488,518.205627
	C688.700867,512.352173 679.816650,505.520111 674.007263,495.275238
	C664.430298,478.386536 660.602417,460.024231 662.254456,440.891083
	C664.384338,416.224701 670.284607,392.303101 679.706665,368.986633
z"/>
<path fill="#863F09" opacity="1.000000" stroke="none"
	d="
M652.843872,545.658936
	C651.230896,545.131653 649.709839,544.137207 648.182312,543.152771
	C640.221558,538.022095 631.978577,536.372498 622.866333,541.176514
	C619.776917,531.466614 617.253601,521.650574 614.206543,511.999847
	C612.813660,507.588379 610.319031,503.533325 608.451050,499.261108
	C606.419128,494.613892 605.661743,489.770721 609.051086,485.527374
	C612.594666,481.090973 617.613464,480.886017 622.772522,482.031891
	C632.335815,484.155975 638.428650,490.555481 642.780396,498.796661
	C650.437317,513.296875 652.804138,529.016602 652.843872,545.658936
z"/>
<path fill="#6F3406" opacity="1.000000" stroke="none"
	d="
M812.220093,662.986206
	C813.375916,663.648132 814.352966,664.284363 815.061584,665.142273
	C822.492004,674.137146 835.095947,672.371765 839.480347,661.536194
	C840.894287,658.041748 841.538086,654.235840 842.778320,650.286316
	C844.413574,666.817078 842.071777,682.908875 832.275391,697.024780
	C829.556763,700.942261 825.340881,704.289001 821.100159,706.580383
	C813.220520,710.838074 804.077209,709.370239 798.813721,704.074036
	C792.926270,698.150024 791.540833,689.242371 795.686218,680.959595
	C797.373474,677.588379 799.630615,674.370361 802.190857,671.602905
	C805.104858,668.453064 808.647278,665.884644 812.220093,662.986206
z"/>
<path fill="#C25F10" opacity="1.000000" stroke="none"
	d="
M746.067871,791.402161
	C748.914734,790.000854 752.168030,789.155212 754.976196,787.537048
	C756.142761,786.864929 756.484436,784.581665 756.979858,782.963196
	C757.912354,779.917236 759.188354,776.853943 759.385437,773.738647
	C759.595154,770.423218 758.827637,767.021423 758.279602,763.691406
	C757.932983,761.585632 756.856873,759.566650 756.710266,757.466797
	C755.963135,746.759705 749.590149,738.331909 745.254883,729.118042
	C743.432556,725.244934 742.698303,721.688599 743.965576,717.268799
	C746.352600,714.610229 748.900085,712.511047 751.070190,710.075562
	C753.817932,706.991821 756.588196,703.953003 761.152771,704.920105
	C766.416260,706.035278 770.813843,708.745605 772.984375,713.920837
	C774.565063,717.689575 772.852600,720.719177 769.902649,723.132568
	C767.588806,725.025696 764.525208,726.433533 763.076111,728.831360
	C761.619751,731.241272 760.928467,734.749451 761.403748,737.518494
	C761.917236,740.509827 764.625122,742.437073 768.848755,742.144043
	C769.993713,744.886353 770.653687,747.201477 770.982239,749.562683
	C771.675232,754.543762 771.153137,759.938477 776.147827,763.286682
	C774.346069,763.452576 772.544373,763.618469 770.231750,763.682922
	C769.384705,763.521973 769.143677,763.654480 768.997742,763.979004
	C759.520935,769.033264 759.164856,776.236267 768.208130,782.020264
	C771.962524,784.421692 775.535889,786.713928 774.837585,792.041992
	C774.121765,797.504456 770.290588,801.170227 764.767822,800.993896
	C759.351196,800.820923 754.307861,799.386597 750.351135,795.296204
	C749.089539,793.992004 747.651978,792.858093 746.067871,791.402161
z"/>
<path fill="#6F3406" opacity="1.000000" stroke="none"
	d="
M494.194092,643.040833
	C496.753448,633.242371 500.797546,624.093689 508.464630,617.313477
	C519.511780,607.544189 531.147705,610.425110 540.351501,618.348938
	C541.089233,618.984131 541.442322,621.357117 540.892578,622.005432
	C530.696167,634.030945 526.180603,648.556091 521.749512,663.686157
	C516.347961,660.062561 511.592438,656.073914 506.699036,652.262329
	C502.614594,649.080811 498.368561,646.106750 494.194092,643.040833
z"/>
<path fill="#E8770F" opacity="1.000000" stroke="none"
	d="
M731.673096,768.857483
	C735.464783,768.393738 739.496460,768.578064 742.981689,767.286987
	C746.583862,765.952698 747.984375,766.894165 748.497559,770.141357
	C749.594177,777.080200 749.407593,783.912231 746.023804,790.727051
	C744.729553,791.130676 743.517090,791.158936 741.634888,791.268188
	C740.679260,791.647583 740.393311,791.945923 740.107361,792.244202
	C740.107361,792.244202 740.114624,792.113281 739.925293,792.226257
	C739.530823,792.631714 739.325562,792.924194 739.120300,793.216614
	C739.120300,793.216614 739.106567,793.103638 738.929321,793.247803
	C738.627258,793.726685 738.502441,794.061462 738.377563,794.396240
	C738.377625,794.396240 738.439941,794.245361 738.084167,794.304688
	C737.317139,796.558411 736.905884,798.752808 736.494629,800.947205
	C736.590759,801.409363 736.686768,801.871521 736.571045,802.973694
	C734.650757,806.013245 732.942200,808.412842 730.814880,811.400635
	C727.790833,805.509338 723.443848,807.209473 719.247681,807.576965
	C719.096130,806.490417 719.003845,805.764709 719.140381,804.818359
	C719.554138,804.002014 719.739014,803.406372 720.117920,802.537354
	C726.035828,797.404053 726.178772,792.886597 720.732056,788.990967
	C717.043335,786.352722 711.707764,786.637573 708.241333,789.414673
	C703.425110,793.273132 705.591614,797.094421 707.707764,800.970032
	C705.437805,797.075073 703.529541,793.195862 701.317688,788.699524
	C701.405518,788.677429 700.214539,788.977600 699.023621,789.277771
	C698.504700,788.436646 697.755310,787.657715 697.508179,786.743103
	C696.599976,783.381531 694.184875,777.991882 695.385803,776.978333
	C698.322021,774.500427 702.948547,774.004150 706.916321,772.780457
	C708.519165,772.286255 710.178406,771.975220 712.304688,771.280090
	C719.500671,773.931824 725.734131,772.704407 731.673096,768.857483
z"/>
<path fill="#ED9349" opacity="1.000000" stroke="none"
	d="
M640.580811,1023.308472
	C640.219788,1022.763184 640.023682,1021.948669 640.033630,1021.946106
	C643.171814,1021.150024 646.328979,1020.429199 649.473999,1019.659058
	C650.789795,1019.336914 652.080688,1018.912659 653.382874,1018.534912
	C652.374146,1017.449280 651.545593,1016.064453 650.325562,1015.329529
	C644.958618,1012.096619 640.105713,1008.631653 640.980957,1000.883057
	C657.720459,1000.480591 674.469055,1000.480591 691.730896,1000.480591
	C691.730896,1007.841919 691.730896,1015.091553 691.351074,1022.683105
	C690.971252,1023.025085 690.915222,1023.049622 690.915222,1023.049561
	C675.735352,1023.165405 660.555481,1023.281250 644.437744,1023.240173
	C643.146667,1023.079468 642.793457,1023.075623 642.440247,1023.071777
	C641.907532,1023.187378 641.374756,1023.302917 640.580811,1023.308472
z"/>
<path fill="#6F3406" opacity="1.000000" stroke="none"
	d="
M883.062256,713.936035
	C872.585327,713.645752 867.192932,709.084412 866.238953,699.705444
	C865.352478,690.989990 870.720459,683.461609 879.158142,681.586914
	C885.921326,680.084229 894.239685,684.633362 898.456665,692.079224
	C903.093506,700.266357 903.428528,709.164612 902.445984,718.584839
	C896.130737,715.633362 890.215881,712.443542 883.062256,713.936035
z"/>
<path fill="#C25F10" opacity="1.000000" stroke="none"
	d="
M754.956970,639.305176
	C744.243408,635.442383 739.535461,626.402954 742.894409,616.818542
	C746.146912,607.537720 755.877991,602.712708 764.944763,605.885193
	C774.380249,609.186707 779.081177,619.336243 775.653992,629.006775
	C772.876221,636.844849 765.183594,640.781067 754.956970,639.305176
z"/>
<path fill="#B25810" opacity="1.000000" stroke="none"
	d="
M883.295410,714.195251
	C890.215881,712.443542 896.130737,715.633362 902.333984,719.049683
	C901.347656,748.158569 895.281799,775.412109 873.484741,796.910583
	C875.853760,788.594543 878.798767,780.391907 880.464600,771.937317
	C883.386230,757.109802 885.708496,742.154602 887.880676,727.194641
	C888.557556,722.533081 887.240234,717.928467 883.295410,714.195251
z"/>
<path fill="#ED9349" opacity="1.000000" stroke="none"
	d="
M669.394653,973.898987
	C663.853699,973.409546 658.780884,973.008484 653.708008,972.607422
	C653.694458,972.394958 653.680908,972.182495 653.667358,971.970032
	C656.465637,971.970032 659.278076,972.147400 662.058594,971.925110
	C665.532776,971.647461 666.930664,969.076477 664.776917,966.513916
	C662.635315,963.966003 659.790039,962.006836 657.230469,959.816162
	C656.864319,959.502808 656.144409,959.450806 655.967224,959.091125
	C652.735840,952.531189 646.619324,952.832825 640.370605,952.400879
	C658.899597,952.193909 677.776001,952.193909 696.930115,952.193909
	C696.930115,959.380554 696.930115,966.404297 696.930115,973.987366
	C687.698364,973.987366 678.780579,973.987366 669.394653,973.898987
z"/>
<path fill="#F6B177" opacity="1.000000" stroke="none"
	d="
M522.433472,563.008850
	C518.570374,553.023926 520.110962,543.075012 522.878418,533.229309
	C527.068237,518.323059 535.682556,506.492218 548.459595,497.205017
	C550.053894,500.814423 551.508484,504.107544 553.006470,508.031677
	C553.337585,508.809906 553.625366,508.957153 553.913147,509.104401
	C553.913147,509.104401 553.965759,508.992706 553.990662,509.418091
	C555.075684,513.931519 556.135864,518.019653 557.195984,522.107727
	C556.688721,522.285889 556.181396,522.464050 555.674133,522.642212
	C553.785217,521.372803 551.835571,520.184082 550.020386,518.816772
	C546.465332,516.138794 543.724121,516.333862 542.008667,520.821960
	C535.615601,529.623596 530.824524,539.091003 529.381592,550.625854
	C523.525146,553.306702 522.805542,558.062744 522.433472,563.008850
z"/>
<path fill="#C25F10" opacity="1.000000" stroke="none"
	d="
M733.175537,704.659790
	C732.418396,700.223022 729.483459,702.837036 728.101807,703.801819
	C725.562683,705.575012 723.448975,707.987244 721.272156,710.243347
	C716.886414,714.789001 711.521667,715.859924 705.142944,714.830383
	C708.440796,711.075073 708.240173,706.938477 706.681763,702.318420
	C705.157593,697.799805 703.657288,693.140869 703.174988,688.438110
	C702.629883,683.123413 705.365295,679.981079 709.968933,678.859009
	C715.238586,677.574707 720.821289,680.074036 723.316956,684.071289
	C724.810669,686.463623 727.352966,688.186768 729.340698,690.289429
	C731.193542,692.249390 732.936279,694.313477 734.456299,696.761719
	C734.366150,697.787354 734.547302,698.382996 734.728394,698.978577
	C734.277527,700.776855 733.826721,702.575195 733.175537,704.659790
z"/>
<path fill="#6F3406" opacity="1.000000" stroke="none"
	d="
M698.804932,789.511353
	C700.214539,788.977600 701.405518,788.677429 701.317688,788.699524
	C703.529541,793.195862 705.437805,797.075073 707.674927,800.976379
	C708.003845,800.998474 707.992920,800.932373 708.049683,801.118896
	C708.379211,801.238037 708.652039,801.170715 709.230164,801.105103
	C710.399902,801.618225 711.264282,802.129639 712.056396,802.854492
	C712.640747,803.062988 713.297424,803.057983 714.329346,802.995850
	C715.194641,803.048218 715.684753,803.157715 716.278931,803.543884
	C717.225830,804.226746 718.068665,804.632874 718.911499,805.039062
	C719.003845,805.764709 719.096130,806.490417 719.150879,807.999390
	C719.030334,810.217102 718.947327,811.651489 718.864258,813.085876
	C712.753662,814.331116 706.353882,814.821655 700.609192,817.022095
	C694.142761,819.498962 689.446289,819.630066 685.673523,813.016724
	C683.968811,810.028625 681.318298,807.580139 679.252563,804.360657
	C683.303772,800.662903 687.199402,797.491272 691.095093,794.319702
	C693.592163,792.794800 696.089172,791.269897 698.804932,789.511353
z"/>
<path fill="#B25810" opacity="1.000000" stroke="none"
	d="
M542.375488,520.758057
	C543.724121,516.333862 546.465332,516.138794 550.020386,518.816772
	C551.835571,520.184082 553.785217,521.372803 555.674133,522.642212
	C556.181396,522.464050 556.688721,522.285889 557.195984,522.107727
	C556.135864,518.019653 555.075684,513.931519 553.955566,509.469696
	C559.550598,516.363708 565.798889,523.269226 570.567810,531.078186
	C572.464661,534.184082 572.248291,539.708679 570.924622,543.387573
	C568.966003,548.830872 565.162537,553.610291 561.583252,558.546265
	C561.260620,544.663818 554.125549,534.130615 546.317139,523.921143
	C545.358337,522.667480 543.945007,521.761353 542.375488,520.758057
z"/>
<path fill="#C25F10" opacity="1.000000" stroke="none"
	d="
M683.326965,768.819458
	C682.743042,769.110840 682.159119,769.402222 681.286133,769.844971
	C679.077393,765.289795 675.428650,763.832947 670.639771,764.421814
	C665.071106,765.106567 659.767578,764.566711 655.022217,760.194214
	C651.584839,754.915344 652.742249,750.051697 654.053894,745.179565
	C659.518677,744.220764 664.955139,742.751831 670.456177,742.446167
	C675.988159,742.138855 679.711182,740.335815 681.255371,734.440063
	C681.156006,736.383850 680.940247,738.665955 680.660095,740.940125
	C680.422546,742.868042 680.110718,744.786865 679.893799,747.241089
	C673.625916,754.542480 673.818604,759.364319 680.569092,765.490601
	C681.625488,766.449219 682.414368,767.702454 683.326965,768.819458
z"/>
<path fill="#C25F10" opacity="1.000000" stroke="none"
	d="
M700.591980,715.523376
	C701.974121,717.867737 701.798828,719.491821 698.999939,720.001160
	C698.193726,720.147888 697.397705,720.599426 696.611206,720.566956
	C689.690430,720.281311 684.859985,722.718811 683.533752,730.127808
	C683.426086,730.729065 682.333496,731.154053 681.391296,731.813171
	C678.764893,729.865662 676.546997,727.638916 674.103821,725.695190
	C670.124634,722.529602 666.982117,718.927673 668.139282,713.459778
	C669.361145,707.686157 674.340759,706.051758 679.132263,704.532043
	C683.904968,703.018250 687.687622,704.493591 691.150757,708.224670
	C693.749268,711.024231 697.217590,713.016663 700.591980,715.523376
z"/>
<path fill="#C25F10" opacity="1.000000" stroke="none"
	d="
M735.349243,408.103210
	C728.627014,400.609528 721.368225,393.735016 716.140808,385.561340
	C708.740845,373.990723 702.850403,361.455719 696.283691,349.349762
	C695.508179,347.920074 694.537048,346.596558 693.321960,345.113708
	C693.425720,344.147797 693.864075,343.292023 694.601562,341.852203
	C708.469604,368.359619 726.680115,390.917908 747.691162,411.724670
	C743.807312,410.717773 739.763428,409.430115 735.349243,408.103210
z"/>
<path fill="#863F09" opacity="1.000000" stroke="none"
	d="
M493.977722,643.336914
	C498.368561,646.106750 502.614594,649.080811 506.699036,652.262329
	C511.592438,656.073914 516.347961,660.062561 521.515564,663.975464
	C520.923950,670.789062 519.979919,677.601746 518.507507,684.696411
	C516.125305,682.272217 514.390930,679.473877 512.390808,676.880493
	C509.020905,672.510925 505.482361,668.271423 502.014740,663.977173
	C502.014740,663.977173 501.996277,663.997986 502.025818,663.650879
	C501.369629,662.188599 500.683868,661.073486 499.998138,659.958374
	C499.998138,659.958374 499.995880,660.003296 499.942871,659.680054
	C498.927856,657.900024 497.965851,656.443237 497.003815,654.986389
	C495.773712,652.753357 494.543579,650.520386 493.042297,648.057312
	C493.101196,646.429199 493.431274,645.031128 493.977722,643.336914
z"/>
<path fill="#C25F10" opacity="1.000000" stroke="none"
	d="
M690.934082,793.992310
	C687.199402,797.491272 683.303772,800.662903 679.129150,804.051514
	C675.601929,801.469788 671.969299,799.003418 669.194336,795.795227
	C664.904175,790.835205 666.205505,786.216980 671.514038,782.348389
	C674.886353,779.890808 677.585999,776.510254 680.791382,773.272339
	C684.254700,779.889038 687.513916,786.776978 690.934082,793.992310
z"/>
<path fill="#B25810" opacity="1.000000" stroke="none"
	d="
M776.479614,763.392761
	C771.153137,759.938477 771.675232,754.543762 770.982239,749.562683
	C770.653687,747.201477 769.993713,744.886353 769.233643,742.254333
	C772.777893,741.810303 776.601318,741.303711 780.359375,741.606567
	C784.898071,741.972412 789.431824,743.149231 790.714294,748.470520
	C791.792908,752.945923 788.425354,759.687012 783.936584,761.836548
	C781.788696,762.865173 779.200317,762.973633 776.479614,763.392761
z"/>
<path fill="#B25810" opacity="1.000000" stroke="none"
	d="
M698.499512,651.717651
	C699.342834,657.102539 697.258606,660.583740 692.555969,662.157776
	C688.492004,663.518005 684.925842,662.328430 682.670532,658.549561
	C680.441040,654.814026 681.111694,651.218994 683.910522,647.996765
	C687.802307,643.516174 696.254883,644.610718 698.499512,651.717651
z"/>
<path fill="#D36B16" opacity="1.000000" stroke="none"
	d="
M718.956848,813.429626
	C718.947327,811.651489 719.030334,810.217102 719.210205,808.360291
	C723.443848,807.209473 727.790833,805.509338 730.814880,811.400635
	C732.942200,808.412842 734.650757,806.013245 736.541138,803.328247
	C737.182617,804.952271 737.890320,806.840515 738.054871,808.775024
	C738.531738,814.384521 736.065247,818.061584 731.252014,819.329102
	C725.989441,820.715027 721.514832,818.677734 718.956848,813.429626
z"/>
<path fill="#EA7B16" opacity="1.000000" stroke="none"
	d="
M522.468506,563.329956
	C522.805542,558.062744 523.525146,553.306702 529.246338,551.004150
	C529.555420,557.738220 529.555420,564.585205 529.555420,572.564758
	C527.083862,569.440613 524.793762,566.545837 522.468506,563.329956
z"/>
<path fill="#C25F10" opacity="1.000000" stroke="none"
	d="
M502.061768,664.327087
	C505.482361,668.271423 509.020905,672.510925 512.390808,676.880493
	C514.390930,679.473877 516.125305,682.272217 518.297485,685.054932
	C518.594116,688.155212 518.572388,691.178955 518.367188,694.688904
	C518.057983,695.482483 518.101624,695.761108 518.314636,696.011047
	C518.508179,701.013428 518.701721,706.015808 518.857788,711.479614
	C518.218201,710.389465 516.896973,708.722107 517.125305,707.304260
	C519.347839,693.505981 514.295593,682.084839 506.091858,671.530334
	C504.484894,669.462952 503.422394,666.972412 502.061768,664.327087
z"/>
<path fill="#994B0D" opacity="1.000000" stroke="none"
	d="
M653.701416,745.186157
	C652.742249,750.051697 651.584839,754.915344 654.828430,759.915527
	C651.059998,759.152405 647.492004,757.380981 647.138428,753.087585
	C646.800903,748.988159 649.815369,746.687866 653.701416,745.186157
z"/>
<path fill="#D36B16" opacity="1.000000" stroke="none"
	d="
M736.630554,800.587158
	C736.905884,798.752808 737.317139,796.558411 738.079468,794.386169
	C737.875916,796.347900 737.321228,798.287476 736.630554,800.587158
z"/>
<path fill="#D36B16" opacity="1.000000" stroke="none"
	d="
M734.795044,698.653442
	C734.547302,698.382996 734.366150,697.787354 734.410767,697.111816
	C734.711548,697.464050 734.786621,697.896179 734.795044,698.653442
z"/>
<path fill="#C25F10" opacity="1.000000" stroke="none"
	d="
M704.523438,714.743652
	C704.001221,715.103455 703.116699,715.505066 701.837769,715.858765
	C702.349304,715.469055 703.255249,715.127319 704.523438,714.743652
z"/>
<path fill="#C25F10" opacity="1.000000" stroke="none"
	d="
M749.489746,413.779236
	C749.105774,413.557892 748.645508,413.100067 748.097351,412.405426
	C748.477478,412.626648 748.945435,413.084686 749.489746,413.779236
z"/>
<path fill="#D36B16" opacity="1.000000" stroke="none"
	d="
M740.412354,792.162903
	C740.393311,791.945923 740.679260,791.647583 741.270569,791.265259
	C741.289734,791.481384 741.003601,791.781494 740.412354,792.162903
z"/>
<path fill="#D36B16" opacity="1.000000" stroke="none"
	d="
M739.378662,793.120056
	C739.325562,792.924194 739.530823,792.631714 739.990051,792.236816
	C740.041687,792.430725 739.839355,792.727112 739.378662,793.120056
z"/>
<path fill="#D36B16" opacity="1.000000" stroke="none"
	d="
M738.609131,794.251709
	C738.502441,794.061462 738.627258,793.726685 738.986206,793.247314
	C739.093811,793.437500 738.967224,793.772339 738.609131,794.251709
z"/>
<path fill="#863F09" opacity="1.000000" stroke="none"
	d="
M492.060913,650.252808
	C492.419342,650.269958 492.446991,650.537842 492.104034,650.905762
	C491.970978,650.821167 491.969879,650.653809 492.060913,650.252808
z"/>
<path fill="#F08F3C" opacity="1.000000" stroke="none"
	d="
M690.966370,1023.147583
	C690.915222,1023.049622 690.971252,1023.025085 691.000183,1023.020874
	C691.029114,1023.016724 691.239014,1023.093018 691.239014,1023.093018
	C691.239014,1023.093018 691.017517,1023.245544 690.966370,1023.147583
z"/>
<path fill="#F08F3C" opacity="1.000000" stroke="none"
	d="
M642.684021,1023.226135
	C642.793457,1023.075623 643.146667,1023.079468 644.031189,1023.076477
	C644.017578,1023.173279 643.472717,1023.276917 642.684021,1023.226135
z"/>
<path fill="#863F09" opacity="1.000000" stroke="none"
	d="
M518.418152,695.753906
	C518.101624,695.761108 518.057983,695.482483 518.286743,695.066650
	C518.433716,695.137634 518.477661,695.317200 518.418152,695.753906
z"/>
<path fill="#994B0D" opacity="1.000000" stroke="none"
	d="
M712.997803,411.331543
	C713.245483,411.244598 713.527954,411.415680 713.846069,411.842621
	C713.598694,411.928833 713.315613,411.759216 712.997803,411.331543
z"/>
<path fill="#C25F10" opacity="1.000000" stroke="none"
	d="
M740.454529,716.531738
	C740.270325,716.657654 739.873047,716.543396 739.241882,716.223206
	C739.419189,716.108704 739.830261,716.200073 740.454529,716.531738
z"/>
<path fill="#B25810" opacity="1.000000" stroke="none"
	d="
M553.809448,508.913391
	C553.625366,508.957153 553.337585,508.809906 553.053223,508.408386
	C553.275024,508.341187 553.491394,508.530609 553.809448,508.913391
z"/>
<path fill="#B25810" opacity="1.000000" stroke="none"
	d="
M769.253418,763.981445
	C769.143677,763.654480 769.384705,763.521973 769.844910,763.670898
	C769.815674,763.834839 769.662354,763.909302 769.253418,763.981445
z"/>
<path fill="#030201" opacity="1.000000" stroke="none"
	d="
M883.196106,999.869751
	C883.208740,991.251099 883.208740,983.117188 883.208740,973.652222
	C892.597046,974.300049 901.822021,974.405701 910.861450,975.755127
	C916.480225,976.593933 919.266663,981.454590 919.900330,987.006042
	C920.636353,993.454285 919.471680,999.544373 913.498352,1003.164124
	C910.477966,1004.994568 906.785156,1006.330078 903.289001,1006.627380
	C896.878296,1007.172546 890.388184,1006.782532 883.183472,1006.782532
	C883.183472,1004.536926 883.183472,1002.445679 883.196106,999.869751
z"/>
<path fill="#030201" opacity="1.000000" stroke="none"
	d="
M1228.930054,1001.000000
	C1228.930054,991.881104 1228.930054,983.262146 1228.930054,974.271118
	C1240.826294,973.952637 1252.285645,973.700623 1263.339844,977.386902
	C1283.569458,984.133118 1292.543335,1008.707458 1282.504761,1029.607910
	C1276.822754,1041.437378 1267.636475,1048.712891 1254.398682,1050.005859
	C1246.164551,1050.809937 1237.867554,1050.970337 1228.930054,1051.455933
	C1228.930054,1034.316284 1228.930054,1017.908142 1228.930054,1001.000000
z"/>
<path fill="#030201" opacity="1.000000" stroke="none"
	d="
M314.428955,1011.903503
	C305.366089,1011.961914 296.743835,1011.961914 287.669556,1011.961914
	C287.669556,999.710388 287.669556,987.557678 287.669556,975.374939
	C296.820190,975.374939 305.811798,974.703552 314.656158,975.557434
	C324.133514,976.472473 329.687317,983.238281 330.098938,992.242432
	C330.576477,1002.688477 325.765228,1008.881348 314.428955,1011.903503
z"/>
<path fill="#030201" opacity="1.000000" stroke="none"
	d="
M757.058350,977.045715
	C766.660522,973.631287 776.479675,972.384766 786.434265,974.988708
	C802.277893,979.132935 812.109009,989.442627 815.038757,1005.480957
	C817.897278,1021.128845 812.545166,1033.890137 799.374878,1043.121094
	C797.374268,1044.523315 795.286438,1045.801270 793.066589,1047.431763
	C784.015076,1050.268433 775.085022,1051.794678 765.830383,1049.794678
	C749.255432,1046.212769 739.080933,1035.915039 736.043030,1020.839417
	C732.618225,1003.843811 738.985291,988.670471 752.923889,979.672424
	C753.761658,979.131653 754.631836,978.640991 755.989136,977.893311
	C756.795105,977.546204 757.001648,977.336975 757.110962,977.031738
	C757.110962,977.031738 757.051331,977.015625 757.058350,977.045715
z"/>
<path fill="#F6B177" opacity="1.000000" stroke="none"
	d="
M756.919922,977.119263
	C757.001648,977.336975 756.795105,977.546204 756.265503,977.671204
	C756.248718,977.494263 756.478455,977.335510 756.919922,977.119263
z"/>
<path fill="#030201" opacity="1.000000" stroke="none"
	d="
M731.822754,768.542969
	C725.734131,772.704407 719.500671,773.931824 712.422485,770.924255
	C709.428467,767.808350 706.809387,764.747559 704.166809,760.877930
	C702.478638,751.263855 705.873474,744.787415 713.303589,740.168396
	C716.092896,739.915771 718.922119,739.237244 721.663574,739.494568
	C728.458618,740.132446 733.647339,743.558350 736.231628,749.997070
	C739.013245,756.927185 737.095947,763.015137 731.822754,768.542969
z"/>
<path fill="#C25F10" opacity="1.000000" stroke="none"
	d="
M712.988037,739.995850
	C705.873474,744.787415 702.478638,751.263855 704.105225,760.523071
	C701.900757,762.957214 699.922607,765.248108 697.460266,766.739929
	C696.659668,767.225037 693.378601,765.750854 693.294189,764.954346
	C692.410950,756.619812 692.562378,748.350647 698.230652,741.366394
	C704.109497,734.122620 705.785767,733.979248 712.988037,739.995850
z"/>
<path fill="#030201" opacity="1.000000" stroke="none"
	d="
M683.697876,768.837280
	C682.414368,767.702454 681.625488,766.449219 680.569092,765.490601
	C673.818604,759.364319 673.625916,754.542480 680.169067,747.500366
	C688.098938,747.479187 691.186890,750.893127 690.774780,758.718079
	C690.333923,767.087769 689.717407,768.019714 683.697876,768.837280
z"/>
<path fill="#C25F10" opacity="1.000000" stroke="none"
	d="
M496.868958,655.227295
	C497.965851,656.443237 498.927856,657.900024 499.965240,659.682007
	C498.938446,658.494141 497.836273,656.981201 496.868958,655.227295
z"/>
<path fill="#C25F10" opacity="1.000000" stroke="none"
	d="
M500.004028,660.307251
	C500.683868,661.073486 501.369629,662.188599 502.039093,663.648743
	C501.351868,662.881226 500.680878,661.768738 500.004028,660.307251
z"/>
<path fill="#030201" opacity="1.000000" stroke="none"
	d="
M712.128662,802.641052
	C711.264282,802.129639 710.399902,801.618225 708.998230,801.056030
	C708.460938,801.005310 707.992920,800.932373 707.992920,800.932373
	C707.992920,800.932373 708.003845,800.998474 708.036621,800.992126
	C705.591614,797.094421 703.425110,793.273132 708.241333,789.414673
	C711.707764,786.637573 717.043335,786.352722 720.732056,788.990967
	C726.178772,792.886597 726.035828,797.404053 719.742249,802.585327
	C718.173401,803.026917 717.174133,803.147034 716.174866,803.267212
	C715.684753,803.157715 715.194641,803.048218 714.022034,802.940613
	C712.935913,802.842041 712.532288,802.741577 712.128662,802.641052
z"/>
<path fill="#D36B16" opacity="1.000000" stroke="none"
	d="
M716.278931,803.543823
	C717.174133,803.147034 718.173401,803.026917 719.548340,802.858765
	C719.739014,803.406372 719.554138,804.002014 719.140381,804.818359
	C718.068665,804.632874 717.225830,804.226746 716.278931,803.543823
z"/>
<path fill="#D36B16" opacity="1.000000" stroke="none"
	d="
M712.056396,802.854492
	C712.532288,802.741577 712.935913,802.842041 713.646851,802.997803
	C713.297424,803.057983 712.640747,803.062988 712.056396,802.854492
z"/>
<path fill="#E8770F" opacity="1.000000" stroke="none"
	d="
M708.049683,801.118896
	C707.992920,800.932373 708.460938,801.005310 708.692871,801.054321
	C708.652039,801.170715 708.379211,801.238037 708.049683,801.118896
z"/>
</svg>
